<svg width="100" height="295" viewBox="0 0 100 295" fill="none" xmlns="http://www.w3.org/2000/svg">
<mask id="mask0_139_1458" style="mask-type:alpha" maskUnits="userSpaceOnUse" x="19" y="15" width="62" height="265">
<rect x="80.5" y="15.5" width="5" height="61" transform="rotate(90 80.5 15.5)" fill="white"/>
<rect x="80.5" y="47.5" width="5" height="61" transform="rotate(90 80.5 47.5)" fill="white"/>
<rect x="80.5" y="108.5" width="5" height="61" transform="rotate(90 80.5 108.5)" fill="white"/>
<rect x="80.5" y="132.5" width="5" height="61" transform="rotate(90 80.5 132.5)" fill="white"/>
<rect x="80.5" y="155.5" width="5" height="61" transform="rotate(90 80.5 155.5)" fill="white"/>
<rect x="80.5" y="195.5" width="5" height="61" transform="rotate(90 80.5 195.5)" fill="white"/>
<rect x="80.5" y="178.5" width="5" height="61" transform="rotate(90 80.5 178.5)" fill="white"/>
<rect x="80.5" y="235.5" width="5" height="61" transform="rotate(90 80.5 235.5)" fill="white"/>
<rect x="80.5" y="253.5" width="5" height="61" transform="rotate(90 80.5 253.5)" fill="white"/>
<rect x="80.5" y="277.5" width="2" height="61" transform="rotate(90 80.5 277.5)" fill="white"/>
<rect x="80.5" y="249.5" width="2" height="61" transform="rotate(90 80.5 249.5)" fill="white"/>
<rect x="80.5" y="265.5" width="2" height="61" transform="rotate(90 80.5 265.5)" fill="white"/>
<rect x="80.5" y="244.5" width="2" height="61" transform="rotate(90 80.5 244.5)" fill="white"/>
<rect x="80.5" y="242.5" width="1" height="61" transform="rotate(90 80.5 242.5)" fill="white"/>
<rect x="80.5" y="229.5" width="1" height="61" transform="rotate(90 80.5 229.5)" fill="white"/>
<rect x="80.5" y="206.5" width="1" height="61" transform="rotate(90 80.5 206.5)" fill="white"/>
<rect x="80.5" y="193.5" width="1" height="61" transform="rotate(90 80.5 193.5)" fill="white"/>
<rect x="80.5" y="222.5" width="1" height="61" transform="rotate(90 80.5 222.5)" fill="white"/>
<rect x="80.5" y="268.5" width="1" height="61" transform="rotate(90 80.5 268.5)" fill="white"/>
<rect x="80.5" y="209.5" width="1" height="61" transform="rotate(90 80.5 209.5)" fill="white"/>
<rect width="2" height="61" transform="matrix(4.37114e-08 -1 -1 -4.37114e-08 80.5 214.5)" fill="white"/>
<rect width="2" height="61" transform="matrix(4.37114e-08 -1 -1 -4.37114e-08 80.5 273.5)" fill="white"/>
<rect width="2" height="61" transform="matrix(4.37114e-08 -1 -1 -4.37114e-08 80.5 261.5)" fill="white"/>
<rect x="80.5" y="164.5" width="1" height="61" transform="rotate(90 80.5 164.5)" fill="white"/>
<rect x="80.5" y="151.5" width="1" height="61" transform="rotate(90 80.5 151.5)" fill="white"/>
<rect x="80.5" y="129.5" width="1" height="61" transform="rotate(90 80.5 129.5)" fill="white"/>
<rect x="80.5" y="116.5" width="1" height="61" transform="rotate(90 80.5 116.5)" fill="white"/>
<rect x="80.5" y="74.5" width="1" height="61" transform="rotate(90 80.5 74.5)" fill="white"/>
<rect x="80.5" y="61.5" width="1" height="61" transform="rotate(90 80.5 61.5)" fill="white"/>
<rect x="80.5" y="100.5" width="1" height="61" transform="rotate(90 80.5 100.5)" fill="white"/>
<rect x="80.5" y="87.5" width="1" height="61" transform="rotate(90 80.5 87.5)" fill="white"/>
<rect x="80.5" y="37.5" width="1" height="61" transform="rotate(90 80.5 37.5)" fill="white"/>
<rect x="80.5" y="24.5" width="1" height="61" transform="rotate(90 80.5 24.5)" fill="white"/>
<rect x="80.5" y="231.5" width="2" height="61" transform="rotate(90 80.5 231.5)" fill="white"/>
<rect x="80.5" y="203.5" width="2" height="61" transform="rotate(90 80.5 203.5)" fill="white"/>
<rect x="80.5" y="185.5" width="2" height="61" transform="rotate(90 80.5 185.5)" fill="white"/>
<rect x="80.5" y="172.5" width="2" height="61" transform="rotate(90 80.5 172.5)" fill="white"/>
<rect x="80.5" y="144.5" width="2" height="61" transform="rotate(90 80.5 144.5)" fill="white"/>
<rect x="80.5" y="118.5" width="2" height="61" transform="rotate(90 80.5 118.5)" fill="white"/>
<rect x="80.5" y="63.5" width="1" height="61" transform="rotate(90 80.5 63.5)" fill="white"/>
<rect x="80.5" y="65.5" width="2" height="61" transform="rotate(90 80.5 65.5)" fill="white"/>
<rect x="80.5" y="105.5" width="2" height="61" transform="rotate(90 80.5 105.5)" fill="white"/>
<rect x="80.5" y="77.5" width="2" height="61" transform="rotate(90 80.5 77.5)" fill="white"/>
<rect x="80.5" y="83.5" width="2" height="61" transform="rotate(90 80.5 83.5)" fill="white"/>
<rect x="80.5" y="70.5" width="2" height="61" transform="rotate(90 80.5 70.5)" fill="white"/>
<rect x="80.5" y="42.5" width="2" height="61" transform="rotate(90 80.5 42.5)" fill="white"/>
<rect x="80.5" y="89.5" width="7" height="61" transform="rotate(90 80.5 89.5)" fill="white"/>
<rect x="80.5" y="29.5" width="7" height="61" transform="rotate(90 80.5 29.5)" fill="white"/>
</mask>
<g mask="url(#mask0_139_1458)">
<path d="M80.5 15.5C80.5 15.5 66.5 95.6617 66.5 147.5C66.5 199.338 80.5 279.5 80.5 279.5L19.5 279.5C19.5 279.5 31.5 199.262 31.5 147.5C31.5 95.7382 19.5 15.5 19.5 15.5L80.5 15.5Z" fill="white"/>
</g>
</svg>
